<svg width="24" height="24" viewBox="0 0 24 24" fill="none" xmlns="http://www.w3.org/2000/svg">
<path fill-rule="evenodd" clip-rule="evenodd" d="M7.45319 6.64237C7.423 6.78243 7.40708 6.92783 7.40708 7.07692V8.30769H6.17631C5.04343 8.30769 4.12503 9.22609 4.12503 10.359V16.1026C4.12503 16.3291 4.30874 16.5128 4.53529 16.5128H6.99683C7.22337 16.5128 7.40708 16.3291 7.40708 16.1026V16.9231C7.40708 18.056 8.32548 18.9744 9.45836 18.9744H14.3814C15.5143 18.9744 16.4327 18.056 16.4327 16.9231V16.1026C16.4327 16.3291 16.6164 16.5128 16.843 16.5128H17.3236L16.5902 15.7794C16.4943 15.8545 16.4327 15.9714 16.4327 16.1026V15.6219L15.6122 14.8014V16.9231C15.6122 17.6028 15.0612 18.1538 14.3814 18.1538H9.45836C8.77865 18.1538 8.22759 17.6028 8.22759 16.9231V14.0513H14.8621L14.0416 13.2308H7.81734C7.59079 13.2308 7.40708 13.4145 7.40708 13.641V16.1026C7.40708 15.876 7.22337 15.6923 6.99683 15.6923H4.94554V10.359C4.94554 9.67926 5.4966 9.1282 6.17631 9.1282H7.81734H9.93902L9.11851 8.30769H8.22759V7.41677L7.45319 6.64237ZM11.4392 8.30769H15.6122V7.07692C15.6122 6.3972 15.0612 5.84615 14.3814 5.84615H9.45836C9.31445 5.84615 9.17627 5.87085 9.04786 5.9163L8.43207 5.30042C8.73393 5.12566 9.08446 5.02563 9.45836 5.02563H14.3814C15.5143 5.02563 16.4327 5.94403 16.4327 7.07692V8.30769H17.6635C18.7964 8.30769 19.7148 9.22609 19.7148 10.359V16.1026C19.7148 16.2338 19.6532 16.3506 19.5573 16.4258L18.8239 15.6923H18.8943V10.359C18.8943 9.67926 18.3432 9.1282 17.6635 9.1282H16.0225H12.2598L11.4392 8.30769ZM15.202 10.7692C14.9754 10.7692 14.7917 10.9529 14.7917 11.1795C14.7917 11.406 14.9754 11.5897 15.202 11.5897H16.843C17.0695 11.5897 17.2532 11.406 17.2532 11.1795C17.2532 10.9529 17.0695 10.7692 16.843 10.7692H15.202Z" fill="#FF3A56"/>
<path d="M6 4L20.7692 18.7692" stroke="#FF3A56" stroke-linecap="round" stroke-linejoin="round"/>
</svg>
